<svg width="26" height="26" viewBox="0 0 26 26" fill="none" xmlns="http://www.w3.org/2000/svg">
<rect x="1.2381" y="1.2381" width="23.5238" height="23.5238" rx="11.7619" fill="white" stroke="#33322E" stroke-width="2.47619"/>
<path d="M15.0309 17.9698L15.0309 17.9697L10.5608 13.5003L15.0309 9.03082L15.0309 9.0308C15.1716 8.8901 15.2507 8.69926 15.2507 8.50028C15.2507 8.30129 15.1716 8.11046 15.0309 7.96975C14.8902 7.82905 14.6994 7.75 14.5004 7.75C14.3014 7.75 14.1106 7.82905 13.9699 7.96975L8.96997 12.9697C8.96994 12.9697 8.96989 12.9697 8.96987 12.9698C8.90017 13.0394 8.8449 13.1221 8.80717 13.2131C8.76943 13.3041 8.75 13.4017 8.75 13.5003C8.75 13.5988 8.76943 13.6964 8.80717 13.7875C8.8449 13.8785 8.90018 13.9612 8.96987 14.0308C8.9699 14.0308 8.96993 14.0309 8.96997 14.0309L13.9699 19.0308C14.0395 19.1005 14.1222 19.1557 14.2133 19.1934C14.3043 19.2311 14.4019 19.2506 14.5004 19.2506C14.5989 19.2506 14.6965 19.2311 14.7875 19.1934C14.8785 19.1557 14.9612 19.1005 15.0309 19.0308C15.1006 18.9611 15.1559 18.8784 15.1936 18.7874C15.2313 18.6964 15.2507 18.5988 15.2507 18.5003C15.2507 18.4017 15.2313 18.3042 15.1936 18.2132C15.1559 18.1221 15.1006 18.0394 15.0309 17.9698Z" fill="#33322E" stroke="#33322E" stroke-width="0.5"/>
</svg>
