<svg width="26" height="26" viewBox="0 0 26 26" fill="none" xmlns="http://www.w3.org/2000/svg">
<path d="M25.5936 23.9688V25.5937H0.40625V23.9688H1.21875H24.7811H25.5936Z" fill="white"/>
<path d="M25.5936 8.12496H24.7811H22.9327L12.9999 2.12874L3.06717 8.12496H1.21875H0.40625L12.9999 0.40625L25.5936 8.12496Z" fill="white"/>
<path d="M24.7811 22.3438V23.9687H1.21875V22.3438H2.03125H5.28123H7.71872H10.9687H15.0312H18.2812H20.7186H23.9686H24.7811Z" fill="white"/>
<path d="M24.7811 9.75V10.9687H23.9686H20.7186H18.2812H15.0312H10.9687H7.71872H5.28123H2.03125H1.21875V9.75H24.7811Z" fill="white"/>
<path d="M24.7811 8.125V9.74999H1.21875V8.125H3.06718H22.9327H24.7811Z" fill="white"/>
<path d="M23.9687 20.7188V22.3437H20.7188V20.7188H21.125H23.5625H23.9687Z" fill="white"/>
<path d="M23.9687 10.9688V12.5937H23.5625H21.125H20.7188V10.9688H23.9687Z" fill="white"/>
<path d="M21.125 12.5938H23.5625V20.7187H21.125V12.5938Z" fill="white"/>
<path d="M22.9358 8.12512H3.07031L13.0031 2.12891L22.9358 8.12512ZM15.0343 6.50013V4.87514H10.9718V6.50013H15.0343Z" fill="white"/>
<path d="M21.125 12.5937V20.7187H20.7187V22.3437H18.2812V20.7187H17.875V12.5937H18.2812V10.9688H20.7187V12.5937H21.125Z" fill="#6CCFCA"/>
<path d="M18.2812 20.7188V22.3437H15.0312V20.7188H15.4375H17.875H18.2812Z" fill="white"/>
<path d="M18.2812 10.9688V12.5937H17.875H15.4375H15.0312V10.9688H18.2812Z" fill="white"/>
<path d="M15.4375 12.5938H17.875V20.7187H15.4375V12.5938Z" fill="white"/>
<path d="M15.4375 12.5937V20.7187H15.0312V22.3437H10.9687V20.7187H10.5625V12.5937H10.9687V10.9688H15.0312V12.5937H15.4375Z" fill="#6CCFCA"/>
<path d="M10.9688 4.875H15.0312V6.49999H10.9688V4.875Z" fill="white"/>
<path d="M10.9687 20.7188V22.3437H7.71875V20.7188H8.125H10.5625H10.9687Z" fill="white"/>
<path d="M10.9687 10.9688V12.5937H10.5625H8.125H7.71875V10.9688H10.9687Z" fill="white"/>
<path d="M8.125 12.5938H10.5625V20.7187H8.125V12.5938Z" fill="white"/>
<path d="M8.12498 12.5937V20.7187H7.71874V22.3437H5.28125V20.7187H4.875V12.5937H5.28125V10.9688H7.71874V12.5937H8.12498Z" fill="#6CCFCA"/>
<path d="M5.28123 20.7188V22.3437H2.03125V20.7188H2.4375H4.87499H5.28123Z" fill="white"/>
<path d="M5.28123 10.9688V12.5937H4.87499H2.4375H2.03125V10.9688H5.28123Z" fill="white"/>
<path d="M2.4375 12.5938H4.87499V20.7187H2.4375V12.5938Z" fill="white"/>
<path d="M25.5936 23.5627H25.1874V22.3439C25.1874 22.1193 25.0058 21.9377 24.7811 21.9377H24.3749V20.7189C24.3749 20.4943 24.1933 20.3127 23.9686 20.3127V13.0002C24.1933 13.0002 24.3749 12.8186 24.3749 12.594V11.3752H24.7811C25.0058 11.3752 25.1874 11.1937 25.1874 10.969V8.53151H25.5936C25.7752 8.53151 25.9353 8.41045 25.9848 8.23536C26.034 8.06026 25.9609 7.87379 25.8061 7.77873L13.2124 0.0600231C13.0824 -0.0200077 12.9179 -0.0200077 12.7879 0.0600231L0.194186 7.77873C0.0389998 7.87379 -0.0341248 8.06026 0.0154374 8.23536C0.0645934 8.41045 0.224655 8.53151 0.406248 8.53151H0.812496V10.969C0.812496 11.1937 0.994089 11.3752 1.21874 11.3752H1.62499V12.594C1.62499 12.8186 1.80658 13.0002 2.03124 13.0002V20.3127C1.80658 20.3127 1.62499 20.4943 1.62499 20.7189V21.9377H1.21874C0.994089 21.9377 0.812496 22.1193 0.812496 22.3439V23.5627H0.406248C0.181593 23.5627 0 23.7443 0 23.9689V25.5939C0 25.8186 0.181593 26.0002 0.406248 26.0002H25.5936C25.8183 26.0002 25.9999 25.8186 25.9999 25.5939V23.9689C25.9999 23.7443 25.8183 23.5627 25.5936 23.5627ZM18.6874 21.9377V20.7189C18.6874 20.4943 18.5058 20.3127 18.2812 20.3127V13.0002C18.5058 13.0002 18.6874 12.8186 18.6874 12.594V11.3752H20.3124V12.594C20.3124 12.8186 20.494 13.0002 20.7186 13.0002V20.3127C20.494 20.3127 20.3124 20.4943 20.3124 20.7189V21.9377H18.6874ZM11.3749 21.9377V20.7189C11.3749 20.4943 11.1933 20.3127 10.9687 20.3127V13.0002C11.1933 13.0002 11.3749 12.8186 11.3749 12.594V11.3752H14.6249V12.594C14.6249 12.8186 14.8065 13.0002 15.0312 13.0002V20.3127C14.8065 20.3127 14.6249 20.4943 14.6249 20.7189V21.9377H11.3749ZM5.68747 21.9377V20.7189C5.68747 20.4943 5.50588 20.3127 5.28122 20.3127V13.0002C5.50588 13.0002 5.68747 12.8186 5.68747 12.594V11.3752H7.31246V12.594C7.31246 12.8186 7.49405 13.0002 7.71871 13.0002V20.3127C7.49405 20.3127 7.31246 20.4943 7.31246 20.7189V21.9377H5.68747ZM10.1562 20.3127H8.53121V13.0002H10.1562V20.3127ZM10.5624 12.1877H8.12496V11.3752H10.5624V12.1877ZM8.12496 21.1252H10.5624V21.9377H8.12496V21.1252ZM17.4687 20.3127H15.8437V13.0002H17.4687V20.3127ZM17.8749 12.1877H15.4374V11.3752H17.8749V12.1877ZM15.4374 21.1252H17.8749V21.9377H15.4374V21.1252ZM21.1249 21.1252H23.5624V21.9377H21.1249V21.1252ZM23.1561 20.3127H21.5311V13.0002H23.1561V20.3127ZM23.5624 12.1877H21.1249V11.3752H23.5624V12.1877ZM12.9999 0.883081L24.1535 7.71901H23.0468L13.21 1.77967C13.0816 1.70208 12.9187 1.70208 12.7903 1.77967L8.72783 4.23259C8.53567 4.34878 8.47392 4.59822 8.5897 4.79037C8.70589 4.98293 8.95573 5.04428 9.14748 4.9285L12.9999 2.60192L21.4747 7.71901H4.5252L7.92833 5.66421C8.12049 5.54803 8.18224 5.29859 8.06646 5.10643C7.95027 4.91387 7.70002 4.85212 7.50868 4.96831L2.95302 7.71901H1.8464L12.9999 0.883081ZM24.3749 8.53151V9.34401H16.2499C16.0253 9.34401 15.8437 9.5256 15.8437 9.75025C15.8437 9.97491 16.0253 10.1565 16.2499 10.1565H24.3749V10.5627H1.62499V10.1565H14.6249C14.8496 10.1565 15.0312 9.97491 15.0312 9.75025C15.0312 9.5256 14.8496 9.34401 14.6249 9.34401H1.62499V8.53151H24.3749ZM4.87497 11.3752V12.1877H2.43749V11.3752H4.87497ZM2.84374 13.0002H4.46873V20.3127H2.84374V13.0002ZM2.43749 21.1252H4.87497V21.9377H2.43749V21.1252ZM1.62499 22.7502H24.3749V23.5627H1.62499V22.7502ZM25.1874 25.1877H0.812496V24.3752H25.1874V25.1877Z" fill="#373631"/>
<path d="M10.9687 6.90624H15.0312C15.2559 6.90624 15.4375 6.72464 15.4375 6.49999V4.875C15.4375 4.65034 15.2559 4.46875 15.0312 4.46875H10.9687C10.7441 4.46875 10.5625 4.65034 10.5625 4.875V6.49999C10.5625 6.72464 10.7441 6.90624 10.9687 6.90624ZM11.375 5.28125H14.625V6.09374H11.375V5.28125Z" fill="#373631"/>
</svg>
