<svg width="40" height="43" viewBox="0 0 40 43" fill="none" xmlns="http://www.w3.org/2000/svg">
<path d="M39.018 23.1735C39.018 33.7754 30.4234 42.3699 19.8215 42.3699C9.21954 42.3699 0.625 33.7754 0.625 23.1735V19.8262H39.018V23.1735Z" fill="white"/>
<path d="M38.2012 19.7681L39.0029 19.1978L39.002 19.1619C38.8386 14.3703 36.9194 10.0251 33.8671 6.74849C33.8544 6.7348 33.8417 6.7212 33.8289 6.70759L32.6871 6.8313L32.9385 5.81644L32.9045 5.78545C29.6266 2.72959 25.2781 0.807104 20.4828 0.643754L20.4478 0.642662L19.8179 1.59387L19.188 0.642578L19.1498 0.643754C14.3392 0.808363 9.97901 2.74361 6.69816 5.81711L6.41169 6.70793H5.80734C2.74099 9.98114 0.8075 14.3287 0.63508 19.1259L0.632812 19.1978L1.06701 19.9886L0.632812 20.4575C0.633652 20.4825 0.634492 20.5073 0.635332 20.5323C0.808508 25.3284 2.74065 29.6754 5.80684 32.9479H6.66256L6.69716 33.8392C9.98699 36.9206 14.3624 38.8572 19.188 39.0129L19.8122 38.0989L20.4478 39.0129C25.2734 38.8571 29.6485 36.9208 32.9381 33.8388L32.3229 32.2842L33.8294 32.9484C36.9036 29.6664 38.8384 25.304 39.002 20.4919L39.003 20.4577L38.2012 19.7681Z" fill="white"/>
<path d="M19.8215 35.645C28.5574 35.645 35.6391 28.5632 35.6391 19.8274C35.6391 11.0916 28.5574 4.00977 19.8215 4.00977C11.0857 4.00977 4.00391 11.0916 4.00391 19.8274C4.00391 28.5632 11.0857 35.645 19.8215 35.645Z" fill="white"/>
<path d="M12.6791 27.0193C14.434 28.2563 16.4189 29.0331 18.5764 29.2632V31.0468C18.5764 31.7371 19.1518 32.2838 19.8422 32.2838C20.5327 32.2838 21.0792 31.7371 21.0792 31.0468V29.3207C24.7327 28.9755 27.2067 26.8755 27.2067 23.711C27.2067 20.6329 25.3368 18.8781 20.9641 17.7849V12.2615C21.9422 12.4916 22.9203 12.9231 23.9271 13.5272C24.2149 13.6998 24.5025 13.7862 24.7902 13.7862C25.682 13.7862 26.4012 13.0957 26.4012 12.204C26.4012 11.5135 25.9984 11.0821 25.5381 10.8232C24.2149 9.98889 22.7765 9.44232 21.0792 9.24101V8.6081C21.0792 7.91766 20.5327 7.37109 19.8422 7.37109C19.1518 7.37109 18.5764 7.91766 18.5764 8.6081V9.2122C14.9805 9.49985 12.5352 11.6287 12.5352 14.7068C12.5352 17.9575 14.4914 19.5398 18.6916 20.6329V26.3002C17.1093 26.0124 15.7859 25.3508 14.4339 24.3726C14.175 24.1713 13.8298 24.0562 13.4845 24.0562C12.5928 24.0562 11.9023 24.7467 11.9023 25.6385C11.9023 26.2426 12.19 26.7029 12.6791 27.0193ZM20.9641 21.1795C23.1792 21.8699 23.8121 22.6466 23.8121 23.9123C23.8121 25.2932 22.8052 26.2137 20.9641 26.4151V21.1795ZM15.9298 14.5054C15.9298 13.2396 16.8504 12.2616 18.6915 12.0889V17.1807C16.4765 16.4616 15.9298 15.7137 15.9298 14.5054Z" fill="#F9A825"/>
<path d="M19.8392 32.9127C18.7939 32.9127 17.9435 32.0752 17.9435 31.0458V29.8162C15.9292 29.5133 14.0408 28.7489 12.3229 27.54C11.6434 27.0957 11.2695 26.4205 11.2695 25.6375C11.2695 24.397 12.2411 23.4253 13.4816 23.4253C13.9595 23.4253 14.4421 23.5862 14.808 23.8669C15.9423 24.6866 16.972 25.2099 18.0587 25.5101V21.1141C16.0031 20.5369 14.581 19.8411 13.6075 18.9402C12.4601 17.8782 11.9024 16.4932 11.9024 14.7058C11.9024 13.0229 12.5528 11.549 13.7834 10.4435C14.8463 9.48879 16.2757 8.87277 17.9435 8.64576V8.60712C17.9435 7.57773 18.7939 6.74023 19.8392 6.74023C20.8861 6.74023 21.7061 7.56026 21.7061 8.60712V8.69363C23.1934 8.94113 24.557 9.46309 25.8584 10.2814C26.6128 10.7115 27.0281 11.3933 27.0281 12.2031C27.0281 13.4435 26.0437 14.4151 24.7872 14.4151C24.3852 14.4151 23.9858 14.2979 23.6001 14.0666C22.8952 13.6437 22.2318 13.3243 21.591 13.1005V17.2977C23.6603 17.8625 25.1564 18.5998 26.1552 19.5453C27.2845 20.6146 27.8335 21.9769 27.8335 23.7101C27.8335 26.9524 25.4486 29.3274 21.706 29.8782V31.0459C21.7061 32.0927 20.8861 32.9127 19.8392 32.9127ZM13.4815 24.6851C12.9386 24.6851 12.5292 25.0945 12.5292 25.6375C12.5292 26.0029 12.6846 26.2737 13.0183 26.4895L13.039 26.5035C14.7414 27.7036 16.626 28.4211 18.6402 28.6359L19.2033 28.6959V31.0458C19.2033 31.3806 19.4886 31.6529 19.8392 31.6529C20.1797 31.6529 20.4463 31.3863 20.4463 31.0458V28.7466L21.0169 28.6927C24.4446 28.3687 26.5738 26.4595 26.5738 23.71C26.5738 20.9586 24.9035 19.4188 20.8084 18.395L20.3313 18.2757V11.4653L21.1054 11.6474C22.1147 11.8849 23.1427 12.3228 24.2483 12.9862C24.4379 13.1 24.6142 13.1554 24.7872 13.1554C25.3374 13.1554 25.7684 12.7371 25.7684 12.2031C25.7684 11.9769 25.7122 11.6445 25.2265 11.3712L25.1993 11.3551C23.8957 10.5332 22.5228 10.0459 21.0021 9.86555L20.4464 9.79962V8.60712C20.4464 8.26665 20.1798 8 19.8393 8C19.4887 8 19.2034 8.27236 19.2034 8.60712V9.79273L18.6237 9.83909C15.306 10.1045 13.1622 12.0148 13.1622 14.7058C13.1622 17.5028 14.703 18.9438 18.8473 20.0223L19.3185 20.1449V27.0539L18.5759 26.9188C17.0066 26.6334 15.6144 26.0052 14.0618 24.8819L14.0443 24.8688C13.8962 24.7538 13.6859 24.6851 13.4815 24.6851ZM20.3313 27.1168V20.3224L21.1485 20.5772C23.1237 21.1928 24.439 21.9953 24.439 23.9113C24.439 25.6371 23.1645 26.8068 21.0296 27.0403L20.3313 27.1168ZM21.591 22.0699V25.663C22.4204 25.4467 23.1793 24.9616 23.1793 23.9114C23.1793 23.261 23.0454 22.6652 21.591 22.0699ZM19.3184 18.0465L18.494 17.7789C16.1933 17.0319 15.297 16.1139 15.297 14.5044C15.297 12.8198 16.5741 11.6536 18.6298 11.4608L19.3184 11.3962V18.0465ZM18.0587 12.8336C17.3278 13.0248 16.5568 13.4714 16.5568 14.5044C16.5568 15.165 16.6785 15.7002 18.0587 16.279V12.8336Z" fill="#373631"/>
<path d="M19.8264 0C16.1006 0 12.4696 1.03947 9.32596 3.00614C8.04646 3.80659 6.86849 4.74655 5.81071 5.80374C5.80954 5.80492 5.80819 5.80584 5.80702 5.8071C5.80576 5.80836 5.80475 5.8097 5.80349 5.81096C4.33687 7.27817 3.10213 8.97121 2.1526 10.8336C1.99463 11.1436 2.11775 11.5229 2.42765 11.681C2.73747 11.8389 3.11691 11.7158 3.27489 11.4059C4.06879 9.8486 5.07694 8.41893 6.26112 7.15203L7.7657 8.65661C5.17839 11.4482 3.54607 15.1362 3.39238 19.1966H1.27127C1.33518 17.2805 1.68993 15.4013 2.33015 13.6019C2.4468 13.2741 2.27564 12.9139 1.94785 12.7972C1.62014 12.6806 1.25985 12.8518 1.14328 13.1795C0.384649 15.3117 0 17.548 0 19.8264V23.1737C0 28.4695 2.06232 33.4484 5.80702 37.1931C9.55171 40.9377 14.5306 43 19.8264 43C25.1222 43 30.101 40.9377 33.8457 37.193C37.5904 33.4483 39.6527 28.4694 39.6527 23.1736V19.8264C39.6527 14.5306 37.5904 9.55171 33.8457 5.80702C30.101 2.06232 25.1222 0 19.8264 0ZM20.4562 1.27152C24.9699 1.42102 29.204 3.17486 32.5013 6.2607L30.9963 7.7657C28.2046 5.17831 24.5167 3.54607 20.4562 3.3923V1.27152ZM7.15203 6.2612C8.02378 5.44655 8.9739 4.71236 9.99414 4.07408C12.7598 2.34392 15.929 1.38045 19.1965 1.27052V3.3923C15.136 3.54607 11.4481 5.17839 8.65644 7.7657L7.15203 6.2612ZM19.8264 4.63888C28.2008 4.63888 35.0138 11.452 35.0138 19.8264C35.0138 28.2009 28.2007 35.0139 19.8264 35.0139C11.452 35.0139 4.63888 28.2009 4.63888 19.8264C4.63888 11.4519 11.4519 4.63888 19.8264 4.63888ZM30.9963 31.887L32.5013 33.392C29.8391 35.8835 26.5669 37.5078 23.0294 38.1194C22.1852 38.2654 21.3258 38.3524 20.4563 38.3812V36.2603C24.5167 36.1066 28.2046 34.4744 30.9963 31.887ZM19.1965 36.2604V38.3813C18.3269 38.3525 17.4675 38.2655 16.6234 38.1195C13.0858 37.5078 9.81357 35.8835 7.15144 33.3921L8.65644 31.8871C11.4482 34.4744 15.136 36.1067 19.1965 36.2604ZM3.39238 20.4563C3.54607 24.5168 5.17839 28.2046 7.7657 30.9964L6.2607 32.5014C3.17478 29.2041 1.42102 24.9701 1.27152 20.4564H3.39238V20.4563ZM32.955 36.3022C29.4482 39.8089 24.7857 41.7402 19.8264 41.7402C14.8671 41.7402 10.2046 39.8089 6.69784 36.3022C4.54465 34.1491 2.98531 31.5597 2.10247 28.7339C2.16864 28.8653 2.23676 28.9958 2.30588 29.1257C2.75292 29.9654 3.26204 30.7728 3.82557 31.5392C4.42631 32.3562 5.08996 33.1286 5.8071 33.8458C9.55171 37.5905 14.5306 39.6528 19.8264 39.6528C24.6257 39.6528 29.1647 37.9591 32.7607 34.8544C33.9027 33.8684 34.9328 32.7541 35.8273 31.5391C36.3909 30.7726 36.8993 29.9664 37.3464 29.1265C37.4158 28.9963 37.484 28.8655 37.5503 28.7338C36.6675 31.5597 35.1082 34.1491 32.955 36.3022ZM33.392 32.5013L31.887 30.9963C34.4743 28.2046 36.1066 24.5168 36.2603 20.4563H38.3812C38.2317 24.97 36.4779 29.204 33.392 32.5013ZM36.2603 19.1966C36.1066 15.1361 34.4743 11.4482 31.887 8.65652L33.392 7.15152C36.4779 10.4489 38.2317 14.6829 38.3812 19.1966H36.2603Z" fill="#373631"/>
</svg>
