<svg width="45" height="45" viewBox="0 0 45 45" fill="none" xmlns="http://www.w3.org/2000/svg">
<g clip-path="url(#clip0_85_568)">
<path d="M7.98463 41.3698V44.273H1.45237C1.05136 44.273 0.726562 43.9482 0.726562 43.5472V1.45042C0.726562 1.04941 1.05136 0.724609 1.45237 0.724609H7.98463V3.62784V6.53106V13.7891V16.6924V21.0472V28.3053V31.2085V34.1117V41.3698Z" fill="white"/>
<path d="M26.8553 31.209V41.3703H23.9521V34.838C23.9521 34.437 23.6273 34.1122 23.2263 34.1122H7.98438V31.209H26.8553Z" fill="white"/>
<path d="M26.8553 16.6914V28.3043H23.9521V21.7721C23.9521 21.371 23.6273 21.0462 23.2263 21.0462H7.98438V16.6914H26.8553Z" fill="white"/>
<path d="M26.8553 3.62891V13.7902H23.9521V7.25794C23.9521 6.85693 23.6273 6.53213 23.2263 6.53213H7.98438V3.62891H26.8553Z" fill="white"/>
<path d="M26.8553 28.3066V31.2099H7.98438V28.3066H10.8876H13.7908H23.9521H26.8553Z" fill="white"/>
<path d="M26.8553 41.373V43.5505C26.8553 43.9515 26.5305 44.2763 26.1295 44.2763H7.98438V41.373H10.8876H13.7908H23.9521H26.8553Z" fill="white"/>
<path d="M26.8553 1.45042V3.62784H7.98438V0.724609H26.1295C26.5305 0.724609 26.8553 1.04941 26.8553 1.45042Z" fill="white"/>
<path d="M26.8553 13.7891V16.6923H7.98438V13.7891H10.8876H13.7908H23.9521H26.8553Z" fill="white"/>
<path d="M13.7908 41.3694H10.8876H7.98438V34.1113H23.2263C23.6273 34.1113 23.9521 34.4361 23.9521 34.8371V41.3694H13.7908Z" fill="#FF826E"/>
<path d="M13.7908 28.3049H10.8876H7.98438V21.0469H23.2263C23.6273 21.0469 23.9521 21.3717 23.9521 21.7727V28.3049H13.7908Z" fill="#FF826E"/>
<path d="M13.7908 13.7913H10.8876H7.98438V6.5332H23.2263C23.6273 6.5332 23.9521 6.858 23.9521 7.25901V13.7913H13.7908Z" fill="#FF826E"/>
<path d="M44.2748 28.3053V42.8214C44.2748 43.6234 43.6252 44.273 42.8232 44.273H28.6074C27.9505 44.273 27.32 44.0117 26.8555 43.5472V41.3698V31.2085V28.3053V16.6924V13.7891V3.62784V1.45042C27.32 0.9859 27.9505 0.724609 28.6074 0.724609H43.549C43.95 0.724609 44.2748 1.04941 44.2748 2.17622V16.6924H41.3716V4.35364C41.3716 3.95263 41.0468 3.62784 40.6458 3.62784H30.4845C30.0835 3.62784 29.7587 3.95263 29.7587 4.35364V40.644C29.7587 41.045 30.0835 41.3698 30.4845 41.3698H40.6458C41.0468 41.3698 41.3716 41.045 41.3716 40.644V28.3053H44.2748Z" fill="white"/>
<path d="M41.3711 16.6914H44.2743V28.3043H41.3711V16.6914Z" fill="white"/>
<path d="M41.3668 28.3063V40.645C41.3668 41.046 41.042 41.3708 40.641 41.3708H30.4797C30.0787 41.3708 29.7539 41.046 29.7539 40.645V4.35471C29.7539 3.9537 30.0787 3.62891 30.4797 3.62891H40.641C41.042 3.62891 41.3668 3.9537 41.3668 4.35471V16.6934V28.3063Z" fill="white"/>
<path d="M43.5484 0H28.607C28.0725 0 27.5579 0.130101 27.0994 0.375151C26.842 0.142802 26.5023 0 26.129 0H1.45161C0.65123 0 0 0.65123 0 1.45161V43.5484C0 44.3488 0.65123 45 1.45161 45H26.129C26.5023 45 26.842 44.8572 27.0994 44.6249C27.5579 44.87 28.0725 45 28.607 45H42.8226C44.0232 45 45 44.0232 45 42.8226V2.17742C45 0.282883 44.0906 0 43.5484 0ZM13.0645 39.1936V40.6452H11.6129V39.1936H10.1613V40.6452H8.70968V38.4677H15.9677V40.6452H14.5161V39.1936H13.0645ZM26.1297 30.4839H8.70968V29.0323H26.1297V30.4839ZM23.2258 37.0161H17.4194V34.8387H23.2258V37.0161ZM15.9677 37.0161H14.5161V35.5645H13.0645V37.0161H11.6129V35.5645H10.1613V37.0161H8.70968V34.8387H15.9677V37.0161ZM8.70968 7.25806H15.9677V9.43548H14.5161V7.98387H13.0645V9.43548H11.6129V7.98387H10.1613V9.43548H8.70968V7.25806ZM17.4194 13.0645V10.8871H23.2258V13.0645H17.4194ZM23.2258 9.43548H17.4194V7.25806H23.2258V9.43548ZM8.70968 10.8871H15.9677V13.0645H14.5161V11.6129H13.0645V13.0645H11.6129V11.6129H10.1613V13.0645H8.70968V10.8871ZM8.70968 21.7742H15.9677V23.9516H14.5161V22.5H13.0645V23.9516H11.6129V22.5H10.1613V23.9516H8.70968V21.7742ZM17.4194 27.5806V25.4032H23.2258V27.5806H17.4194ZM23.2258 23.9516H17.4194V21.7742H23.2258V23.9516ZM8.70968 25.4032H15.9677V27.5806H14.5161V26.129H13.0645V27.5806H11.6129V26.129H10.1613V27.5806H8.70968V25.4032ZM26.1296 27.5806H24.6774V21.7742C24.6774 20.9738 24.0262 20.3226 23.2258 20.3226H8.70968V17.4194H26.1294L26.1296 27.5806ZM26.1294 15.9677H8.70968V14.5161H26.1293L26.1294 15.9677ZM26.1293 13.0645H24.6774V7.25806C24.6774 6.45768 24.0262 5.80645 23.2258 5.80645H8.70968V4.35484H26.1291L26.1293 13.0645ZM17.4194 38.4677H23.2258V40.6452H17.4194V38.4677ZM23.2258 33.3871H8.70968V31.9355H26.1297L26.1299 40.6452H24.6774V34.8387C24.6774 34.0383 24.0262 33.3871 23.2258 33.3871ZM26.129 2.90323H8.70968V1.45161H26.129V2.90323ZM1.45161 1.45161H7.25806V43.5484H1.45161V1.45161ZM26.129 43.5484H8.70968V42.0968H26.1299V43.5484C26.1299 43.5484 26.1297 43.5484 26.129 43.5484ZM42.8226 43.5484H28.607C28.2328 43.5484 27.8776 43.4302 27.5806 43.2142V1.78576C27.8776 1.56992 28.2329 1.45161 28.607 1.45161H43.4609C43.495 1.54225 43.5483 1.75201 43.5483 2.17742V15.9677H42.0967V4.35484C42.0967 3.55446 41.4455 2.90323 40.6451 2.90323H30.4839C29.6835 2.90323 29.0323 3.55446 29.0323 4.35484V40.6452C29.0323 41.4455 29.6835 42.0968 30.4839 42.0968H40.6452C41.4455 42.0968 42.0968 41.4455 42.0968 40.6452V29.0323H43.5484V42.8226C43.5484 43.2228 43.2228 43.5484 42.8226 43.5484ZM42.0968 17.4194H43.5484V27.5806H42.0968V17.4194ZM40.6461 40.6452C40.6461 40.6452 40.6458 40.6452 40.6452 40.6452H30.4839V4.35484H40.6452L40.6461 40.6452Z" fill="#373631"/>
<path d="M32.1406 28.0938L33.1669 27.0675L38.2468 32.1473L37.2205 33.1736L32.1406 28.0938Z" fill="#373631"/>
<path d="M32.1406 23.0137L33.1669 21.9874L38.2468 27.0673L37.2205 28.0936L32.1406 23.0137Z" fill="#373631"/>
<path d="M32.1406 17.9336L33.1669 16.9073L38.2468 21.9872L37.2205 23.0135L32.1406 17.9336Z" fill="#373631"/>
</g>
<defs>
<clipPath id="clip0_85_568">
<rect width="45" height="45" fill="white"/>
</clipPath>
</defs>
</svg>
