<svg width="32" height="33" viewBox="0 0 32 33" fill="none" xmlns="http://www.w3.org/2000/svg">
<g clip-path="url(#clip0_163_2)">
<path d="M20.3328 8.6814H12.3779C12.0852 8.6814 11.8477 8.44384 11.8477 8.15113V5.23425C11.8475 2.74867 13.8696 0.726562 16.3553 0.726562C18.8411 0.726562 20.863 2.74867 20.863 5.23425V8.15097C20.863 8.44384 20.6255 8.6814 20.3328 8.6814ZM12.9082 7.6207H19.8023V5.23425C19.8023 3.33363 18.256 1.7871 16.3552 1.7871C14.4544 1.7871 12.9082 3.33363 12.9082 5.23425V7.6207Z" fill="#1F1D1D"/>
<path d="M28.0256 10.8019H4.69141L6.28237 8.15039H26.4347L28.0256 10.8019Z" fill="white"/>
<path d="M28.017 11.3336H4.68273C4.49147 11.3336 4.31544 11.2308 4.22129 11.0645C4.12714 10.8983 4.12947 10.6944 4.22797 10.5302L5.81894 7.87854C5.91464 7.71866 6.08726 7.62109 6.2737 7.62109H26.426C26.6124 7.62109 26.7851 7.71866 26.8808 7.87854L28.4717 10.5302C28.5701 10.6941 28.5726 10.8983 28.4784 11.0645C28.3843 11.2306 28.2081 11.3336 28.017 11.3336ZM5.61929 10.2729H27.0804L26.1258 8.68195H6.57418L5.61929 10.2729Z" fill="#1F1D1D"/>
<path d="M16.3452 11.9736L23.5742 13.6641L25.3855 5.91874L18.1565 4.22824L16.3452 11.9736Z" fill="#BCE08D"/>
<path d="M23.573 14.1947C23.5329 14.1947 23.4924 14.1902 23.4515 14.1807L16.2221 12.4898C16.0851 12.4577 15.9665 12.3728 15.8923 12.2531C15.818 12.1337 15.7944 11.9896 15.8265 11.8527L17.6384 4.10712C17.7049 3.82187 17.99 3.64413 18.2756 3.71156L25.505 5.40242C25.6421 5.43458 25.7606 5.51942 25.8349 5.6392C25.9091 5.75853 25.9327 5.90271 25.9006 6.03959L24.0887 13.7851C24.0317 14.0298 23.8135 14.1947 23.573 14.1947ZM16.98 11.5778L23.1768 13.0273L24.7468 6.31474L18.55 4.86532L16.98 11.5778Z" fill="#1F1D1D"/>
<path d="M7.87594 13.4197L16.7461 12.3711L15.6226 2.86724L6.75243 3.91583L7.87594 13.4197Z" fill="#66ABE9"/>
<path d="M7.87947 13.9506C7.61426 13.9506 7.3854 13.7522 7.35339 13.4823L6.23024 3.97896C6.19606 3.68811 6.40394 3.42445 6.69448 3.38996L15.5644 2.34154C15.7047 2.32507 15.8444 2.36484 15.955 2.45185C16.0656 2.53885 16.137 2.66641 16.1534 2.80609L17.2766 12.3098C17.2931 12.4493 17.2536 12.5901 17.1663 12.7004C17.0793 12.811 16.9517 12.8823 16.8123 12.8988L7.94239 13.9469C7.92111 13.9492 7.90013 13.9506 7.87947 13.9506ZM7.34563 4.38121L8.34449 12.8314L16.1612 11.9078L15.1623 3.45739L7.34563 4.38121Z" fill="#1F1D1D"/>
<path d="M12.8777 17.3924L21.4219 15.3379L19.2597 6.3461L10.7155 8.40064L12.8777 17.3924Z" fill="#F782A5"/>
<path d="M12.8796 17.9244C12.6402 17.9244 12.4226 17.7613 12.3644 17.5181L10.2023 8.52682C10.1339 8.24203 10.3092 7.95569 10.594 7.88732L19.1372 5.8329C19.2745 5.80027 19.4182 5.82311 19.538 5.89597C19.6578 5.96946 19.7437 6.0877 19.7767 6.22427L21.9388 15.2159C21.9717 15.3527 21.9489 15.4969 21.8754 15.6167C21.8019 15.7368 21.684 15.8224 21.5471 15.8554L13.0039 17.9096C12.9624 17.9199 12.9204 17.9244 12.8796 17.9244ZM11.3573 8.79436L13.2714 16.7548L20.7835 14.9485L18.8693 6.98821L11.3573 8.79436Z" fill="#1F1D1D"/>
<path d="M29.0844 31.4853H3.62891L4.68945 10.8027H28.0237L29.0844 31.4853Z" fill="white"/>
<path d="M29.0795 32.0146H3.62407C3.4788 32.0146 3.33975 31.9549 3.23954 31.8496C3.13963 31.7443 3.08712 31.6022 3.09442 31.4571L4.15512 10.7746C4.16972 10.4927 4.40246 10.2715 4.68492 10.2715H28.0192C28.3016 10.2715 28.5344 10.4926 28.549 10.7746L29.6097 31.4571C29.6171 31.6024 29.5646 31.7443 29.4645 31.8496C29.3637 31.9549 29.2248 32.0146 29.0795 32.0146ZM4.18215 30.9539H28.5213L27.515 11.332H5.18847L4.18215 30.9539Z" fill="#1F1D1D"/>
<path d="M20.3341 15.0433C20.9199 15.0433 21.3948 14.5684 21.3948 13.9826C21.3948 13.3968 20.9199 12.9219 20.3341 12.9219C19.7483 12.9219 19.2734 13.3968 19.2734 13.9826C19.2734 14.5684 19.7483 15.0433 20.3341 15.0433Z" fill="white"/>
<path d="M20.3332 15.5745C19.4558 15.5745 18.7422 14.8609 18.7422 13.9835C18.7422 13.1062 19.4558 12.3926 20.3332 12.3926C21.2105 12.3926 21.9241 13.1062 21.9241 13.9835C21.9241 14.8609 21.2105 15.5745 20.3332 15.5745ZM20.3332 13.4533C20.0408 13.4533 19.8029 13.6911 19.8029 13.9835C19.8029 14.2759 20.0408 14.5138 20.3332 14.5138C20.6256 14.5138 20.8634 14.2759 20.8634 13.9835C20.8634 13.6911 20.6256 13.4533 20.3332 13.4533Z" fill="#1F1D1D"/>
<path d="M12.381 15.0433C12.9668 15.0433 13.4417 14.5684 13.4417 13.9826C13.4417 13.3968 12.9668 12.9219 12.381 12.9219C11.7952 12.9219 11.3203 13.3968 11.3203 13.9826C11.3203 14.5684 11.7952 15.0433 12.381 15.0433Z" fill="white"/>
<path d="M12.3761 15.5745C11.4988 15.5745 10.7852 14.8609 10.7852 13.9835C10.7852 13.1062 11.4988 12.3926 12.3761 12.3926C13.2535 12.3926 13.9671 13.1062 13.9671 13.9835C13.9671 14.8609 13.2535 15.5745 12.3761 15.5745ZM12.3761 13.4533C12.0837 13.4533 11.8459 13.6911 11.8459 13.9835C11.8459 14.2759 12.0837 14.5138 12.3761 14.5138C12.6685 14.5138 12.9064 14.2759 12.9064 13.9835C12.9064 13.6911 12.6685 13.4533 12.3761 13.4533Z" fill="#1F1D1D"/>
<path d="M16.3553 21.9371C13.8698 21.9371 11.8477 19.915 11.8477 17.4294V14.5127C11.8477 14.22 12.0852 13.9824 12.3779 13.9824C12.6706 13.9824 12.9082 14.22 12.9082 14.5127V17.4294C12.9082 19.33 14.4546 20.8766 16.3553 20.8766C18.2561 20.8766 19.8025 19.3302 19.8025 17.4294V14.7172C19.7759 14.6544 19.7616 14.5851 19.7616 14.5127C19.7616 14.22 19.9992 13.9824 20.2919 13.9824H20.3328C20.6255 13.9824 20.863 14.22 20.863 14.5127V17.4294C20.863 19.915 18.8409 21.9371 16.3553 21.9371Z" fill="#1F1D1D"/>
</g>
<defs>
<clipPath id="clip0_163_2">
<rect width="31.2891" height="31.2891" fill="white" transform="translate(0.710938 0.726562)"/>
</clipPath>
</defs>
</svg>
