<svg width="31" height="31" viewBox="0 0 31 31" fill="none" xmlns="http://www.w3.org/2000/svg">
<g clip-path="url(#clip0_85_861)">
<path d="M28.6968 21.3322H2.30078V1.68865C2.30078 1.01058 2.85043 0.460938 3.52849 0.460938H27.4691C28.1472 0.460938 28.6968 1.01058 28.6968 1.68865V21.3322Z" fill="white"/>
<path d="M23.1737 18.5692H6.59941C5.58228 18.5692 4.75781 17.7447 4.75781 16.7276V5.06425C4.75781 4.04712 5.58228 3.22266 6.59941 3.22266H23.1737C24.1908 3.22266 25.0153 4.04712 25.0153 5.06425V16.7276C25.0153 17.7447 24.1908 18.5692 23.1737 18.5692Z" fill="#89CED0"/>
<path d="M30.5401 21.332H0.460938V30.5399H30.5401V21.332Z" fill="white"/>
<path d="M4.7562 23.1719H2.30078V25.0135H4.7562V23.1719Z" fill="white"/>
<path d="M5.98552 17.9553V5.37116C5.98552 4.86263 6.39779 4.45037 6.90632 4.45037H24.4014C24.5874 4.45037 24.7669 4.47822 24.9361 4.5295C24.707 3.77327 24.0048 3.22266 23.1737 3.22266H6.59941C5.58228 3.22266 4.75781 4.04712 4.75781 5.06425V16.7276C4.75781 17.5587 5.30843 18.2609 6.06466 18.4901C6.01343 18.3208 5.98552 18.1413 5.98552 17.9553Z" fill="white"/>
<path d="M28.6968 20.1035H2.30078V21.3312H28.6968V20.1035Z" fill="white"/>
<path d="M30.5401 29.3105H0.460938V30.5383H30.5401V29.3105Z" fill="white"/>
<path d="M28.6366 24.4004H16.3594V25.6281H28.6366V24.4004Z" fill="white"/>
<path d="M27.4085 26.2422H24.9531V27.4699H27.4085V26.2422Z" fill="white"/>
<path d="M27.3153 6.90504H26.3945V5.98424H27.3153V6.90504ZM27.3153 5.0635H26.3945V1.99414H27.3153V5.0635Z" fill="white"/>
<path d="M23.1732 2.76172H6.59887C5.3295 2.76172 4.29688 3.79435 4.29688 5.06371V16.7271C4.29688 17.9965 5.3295 19.0291 6.59887 19.0291H23.1732C24.4425 19.0291 25.4751 17.9965 25.4751 16.7271V5.06371C25.4751 3.79435 24.4425 2.76172 23.1732 2.76172ZM24.5543 16.727C24.5543 17.4886 23.9348 18.1082 23.1732 18.1082H6.59887C5.83725 18.1082 5.21767 17.4886 5.21767 16.727V5.06371C5.21767 4.30215 5.83725 3.68252 6.59887 3.68252H23.1732C23.9348 3.68252 24.5543 4.30215 24.5543 5.06371V16.727Z" fill="#1F1D1D"/>
<path d="M29.1584 20.8713V1.68811C29.1584 0.75732 28.4011 0 27.4703 0H3.5297C2.59885 0 1.84159 0.75732 1.84159 1.68811V20.8713H0V31H31V20.8713H29.1584ZM2.76239 1.68811C2.76239 1.26495 3.1066 0.920797 3.5297 0.920797H27.4703C27.8935 0.920797 28.2376 1.26501 28.2376 1.68811V20.8713H2.76239V1.68811ZM30.0792 30.0792H13.8119V28.3297H12.8911V30.0792H11.9703V28.3297H11.0495V30.0792H10.1287V28.3297H9.20791V30.0792H8.28711V28.3297H7.36631V30.0792H6.44552V28.3297H5.52478V30.0792H4.60398V28.3297H3.68319V30.0792H2.76239V28.3297H1.84159V30.0792H0.920797V21.7921H1.84159H29.1584H30.0792V30.0792Z" fill="#1F1D1D"/>
<path d="M13.8114 26.4883H12.8906V27.4091H13.8114V26.4883Z" fill="#1F1D1D"/>
<path d="M11.9716 26.4883H11.0508V27.4091H11.9716V26.4883Z" fill="#1F1D1D"/>
<path d="M10.1278 26.4883H9.20703V27.4091H10.1278V26.4883Z" fill="#1F1D1D"/>
<path d="M8.28798 26.4883H7.36719V27.4091H8.28798V26.4883Z" fill="#1F1D1D"/>
<path d="M6.44423 26.4883H5.52344V27.4091H6.44423V26.4883Z" fill="#1F1D1D"/>
<path d="M4.60439 26.4883H3.68359V27.4091H4.60439V26.4883Z" fill="#1F1D1D"/>
<path d="M2.76455 26.4883H1.84375V27.4091H2.76455V26.4883Z" fill="#1F1D1D"/>
<path d="M27.3153 13.1367H26.3945V14.0575H27.3153V13.1367Z" fill="#1F1D1D"/>
<path d="M27.3153 15.5918H26.3945V16.5126H27.3153V15.5918Z" fill="#1F1D1D"/>
<path d="M28.6366 23.9414H16.3594V24.8622H28.6366V23.9414Z" fill="#1F1D1D"/>
<path d="M27.4085 25.7832H24.9531V26.704H27.4085V25.7832Z" fill="#1F1D1D"/>
<path d="M18.5067 25.7832H17.5859V26.704H18.5067V25.7832Z" fill="#1F1D1D"/>
<path d="M1.84375 25.4753H5.21996V22.7129H1.84375V25.4753ZM2.76455 23.6337H4.29917V24.5545H2.76455V23.6337Z" fill="#1F1D1D"/>
<path d="M17.28 5.76953H6.23047V6.69033H17.28V5.76953Z" fill="#1F1D1D"/>
<path d="M19.7354 7.61133H6.23047V8.53213H19.7354V7.61133Z" fill="#1F1D1D"/>
<path d="M15.4384 9.45312H6.23047V10.3739H15.4384V9.45312Z" fill="#1F1D1D"/>
<path d="M18.5077 11.2949H6.23047V12.2157H18.5077V11.2949Z" fill="#1F1D1D"/>
<path d="M7.15127 13.1367H6.23047V14.0575H7.15127V13.1367Z" fill="#1F1D1D"/>
</g>
<defs>
<clipPath id="clip0_85_861">
<rect width="31" height="31" fill="white"/>
</clipPath>
</defs>
</svg>
