<svg width="34" height="34" viewBox="0 0 34 34" fill="none" xmlns="http://www.w3.org/2000/svg">
<g clip-path="url(#clip0_85_836)">
<path d="M27.5004 5.40311L28.6014 6.50406C28.9972 6.89991 29.0014 7.5398 28.6108 7.93897L3.82365 33.1987C3.42707 33.604 2.77516 33.6067 2.37327 33.2048L0.799642 31.6312C0.397752 31.2293 0.400474 30.5774 0.805752 30.1808L26.0655 5.39375C26.4647 5.00315 27.1046 5.00733 27.5004 5.40311Z" fill="#A07C7C"/>
<path d="M28.6022 6.50412L27.5012 5.40317C27.1054 5.00732 26.4655 5.00314 26.0663 5.39374L25.7803 5.67444L26.61 6.50412C27.0058 6.89997 27.01 7.53986 26.6194 7.93903L2.09766 32.9284L2.37411 33.2048C2.776 33.6067 3.42791 33.604 3.82448 33.1987L28.6115 7.93896C29.0021 7.53986 28.998 6.89997 28.6022 6.50412Z" fill="white"/>
<path d="M19.223 17.9227L16.03 14.7297C15.641 14.3407 15.641 13.7101 16.03 13.3211C16.419 12.932 17.0497 12.932 17.4387 13.3211L20.6317 16.5141C21.0207 16.9031 21.0207 17.5337 20.6317 17.9227C20.2427 18.3117 19.6121 18.3117 19.223 17.9227Z" fill="#FFD064"/>
<path d="M20.6338 16.5161L19.2251 15.1074C19.6141 15.4964 19.6141 16.1271 19.2251 16.5161C18.8361 16.9051 18.2054 16.9051 17.8164 16.5161L19.2251 17.9248C19.6141 18.3138 20.2447 18.3138 20.6338 17.9248C21.0228 17.5358 21.0228 16.9051 20.6338 16.5161Z" fill="#FFC250"/>
<path d="M23.1293 15.2064L18.7975 10.8746C18.5415 10.6186 18.5415 10.2034 18.7975 9.94732L22.9415 5.80337C23.1975 5.54731 23.6127 5.54731 23.8688 5.80337L28.2006 10.1352C28.4566 10.3913 28.4566 10.8064 28.2006 11.0625L24.0566 15.2064C23.8006 15.4625 23.3854 15.4625 23.1293 15.2064Z" fill="white"/>
<path d="M28.2026 10.1333L26.7939 8.72461C27.05 8.98067 27.05 9.39584 26.7939 9.65191L22.65 13.7959C22.3939 14.0519 21.9787 14.0519 21.7227 13.7959L23.1313 15.2045C23.3874 15.4606 23.8026 15.4606 24.0586 15.2045L28.2026 11.0606C28.4587 10.8045 28.4586 10.3893 28.2026 10.1333Z" fill="white"/>
<path d="M22.5562 6.18781C22.5562 6.18781 16.3271 -0.0412277 10.1978 0.538034C10.0081 0.555964 9.93494 0.795026 10.0818 0.916417C11.4246 2.02653 16.0077 5.87358 19.3543 9.38965L22.5562 6.18781Z" fill="#D8E2F1"/>
<path d="M10.1968 0.538034C10.1655 0.540956 10.1378 0.550386 10.1133 0.563866C14.6107 1.07858 18.8027 4.57474 20.1297 5.78021C20.3697 5.99835 20.3782 6.37262 20.1488 6.60199L18.3697 8.38108C18.7062 8.71849 19.0354 9.05556 19.3533 9.38965L22.5552 6.18781C22.5552 6.18781 16.3262 -0.0412277 10.1968 0.538034Z" fill="#B9CBEA"/>
<path d="M27.8151 11.4473C27.8151 11.4473 34.0442 17.6763 33.4649 23.8056C33.447 23.9953 33.2079 24.0685 33.0865 23.9216C31.9764 22.5788 28.1294 17.9957 24.6133 14.6491L27.8151 11.4473Z" fill="#D8E2F1"/>
<path d="M27.8164 11.4473L26.7695 12.4941C28.2621 14.2547 31.0384 18.0086 31.4575 21.9882C32.1883 22.8399 32.7585 23.5233 33.0878 23.9216C33.2091 24.0685 33.4482 23.9953 33.4661 23.8056C34.0454 17.6762 27.8164 11.4473 27.8164 11.4473Z" fill="#B9CBEA"/>
<path d="M17.793 13.5121L19.5967 11.7422" stroke="#1F1D1D" stroke-width="0.996094" stroke-miterlimit="10" stroke-linecap="round" stroke-linejoin="round"/>
<path d="M5.19141 25.8793L16.2144 15.0625" stroke="#1F1D1D" stroke-width="0.996094" stroke-miterlimit="10" stroke-linecap="round" stroke-linejoin="round"/>
<path d="M18.8928 17.8438L3.82365 33.2003C3.42707 33.6055 2.77516 33.6083 2.37327 33.2064L0.799642 31.6327C0.397752 31.2309 0.400474 30.5789 0.805752 30.1824L3.49886 27.5396" stroke="#1F1D1D" stroke-width="0.996094" stroke-miterlimit="10" stroke-linecap="round" stroke-linejoin="round"/>
<path d="M22.2221 14.4531L20.457 16.2518" stroke="#1F1D1D" stroke-width="0.996094" stroke-miterlimit="10" stroke-linecap="round" stroke-linejoin="round"/>
<path d="M24.8438 6.59493L26.0658 5.39569C26.4649 5.00509 27.1049 5.00928 27.5007 5.40512L28.6017 6.50607C28.9975 6.90192 29.0017 7.54181 28.6111 7.94098L27.417 9.15787" stroke="#1F1D1D" stroke-width="0.996094" stroke-miterlimit="10" stroke-linecap="round" stroke-linejoin="round"/>
<path d="M19.223 17.9247L16.03 14.7317C15.641 14.3427 15.641 13.712 16.03 13.323C16.419 12.934 17.0497 12.934 17.4387 13.323L20.6317 16.516C21.0207 16.905 21.0207 17.5357 20.6317 17.9247C20.2427 18.3137 19.6121 18.3137 19.223 17.9247Z" stroke="#1F1D1D" stroke-width="0.996094" stroke-miterlimit="10" stroke-linecap="round" stroke-linejoin="round"/>
<path d="M23.1293 15.2084L18.7975 10.8766C18.5415 10.6205 18.5415 10.2053 18.7975 9.94928L22.9415 5.80533C23.1975 5.54927 23.6127 5.54927 23.8688 5.80533L28.2006 10.1371C28.4566 10.3932 28.4566 10.8084 28.2006 11.0644L24.0566 15.2084C23.8006 15.4645 23.3854 15.4645 23.1293 15.2084Z" stroke="#1F1D1D" stroke-width="0.996094" stroke-miterlimit="10" stroke-linecap="round" stroke-linejoin="round"/>
<path d="M22.5562 6.18976C22.5562 6.18976 16.3271 -0.0392746 10.1978 0.539987C10.0081 0.557917 9.93494 0.796979 10.0818 0.91837C11.4246 2.02848 16.0077 5.87553 19.3543 9.39161L22.5562 6.18976Z" stroke="#1F1D1D" stroke-width="0.996094" stroke-miterlimit="10" stroke-linecap="round" stroke-linejoin="round"/>
<path d="M31.4074 16.2355C32.6686 18.4253 33.7183 21.1259 33.4649 23.8076C33.447 23.9973 33.2079 24.0705 33.0865 23.9236C31.9764 22.5808 28.1294 17.9977 24.6133 14.6511L27.8151 11.4492C27.8151 11.4492 28.9169 12.551 30.1507 14.2839" stroke="#1F1D1D" stroke-width="0.996094" stroke-miterlimit="10" stroke-linecap="round" stroke-linejoin="round"/>
<path d="M24.3242 9.32227L24.9051 9.90319" stroke="#1F1D1D" stroke-width="0.996094" stroke-miterlimit="10" stroke-linecap="round" stroke-linejoin="round"/>
<path d="M22.4844 11.1621L23.0653 11.743" stroke="#1F1D1D" stroke-width="0.996094" stroke-miterlimit="10" stroke-linecap="round" stroke-linejoin="round"/>
</g>
<defs>
<clipPath id="clip0_85_836">
<rect width="34" height="34" fill="white"/>
</clipPath>
</defs>
</svg>
