<svg width="77" height="77" viewBox="0 0 77 77" fill="none" xmlns="http://www.w3.org/2000/svg">
<g clip-path="url(#clip0_154_299)">
<path d="M46.916 3.24219C30.9231 7.0377 18.4688 21.8447 18.4688 38.7492C18.4688 55.6536 30.9231 70.4607 46.916 74.2562C62.9089 70.4607 75.3633 55.6536 75.3633 38.7492C75.3633 21.8447 62.9089 7.0377 46.916 3.24219Z" fill="#FD3C65"/>
<path d="M52.428 25.2358C54.1643 26.9709 54.1643 29.786 52.428 31.5212L45.1993 38.7499L52.428 45.9786C54.1643 47.7137 54.1643 50.5288 52.428 52.2639C51.5599 53.1321 50.4232 53.5662 49.2853 53.5662C48.1475 53.5662 47.0108 53.1321 46.1427 52.2639L38.9139 45.0352L31.6852 52.2639C30.8171 53.1321 29.6804 53.5662 28.5425 53.5662C27.4047 53.5662 26.268 53.1321 25.3999 52.2639C23.6636 50.5288 23.6636 47.7137 25.3999 45.9786L32.6286 38.7499L25.3999 31.5212C23.6636 29.786 23.6636 26.9709 25.3999 25.2358C27.1367 23.4995 29.9484 23.4995 31.6852 25.2358L38.9139 32.4645L46.1427 25.2358C47.8795 23.4995 50.6911 23.4995 52.428 25.2358Z" fill="white"/>
<path d="M73.7879 24.1797C71.8398 19.6908 69.0681 15.6314 65.5504 12.1137C62.0327 8.59597 57.9732 5.82428 53.4844 3.87617C48.8126 1.84819 43.9105 0.820312 38.9141 0.820312C33.9176 0.820312 29.0155 1.84819 24.3438 3.87617C19.8549 5.82428 15.7955 8.59597 12.2777 12.1137C8.76003 15.6314 5.98834 19.6908 4.04023 24.1797C2.01225 28.8514 0.984375 33.7536 0.984375 38.75C0.984375 43.7464 2.01225 48.6486 4.04023 53.3203C5.98834 57.8092 8.76003 61.8686 12.2777 65.3863C15.7955 68.904 19.8549 71.6757 24.3438 73.6238C29.0155 75.6518 33.9176 76.6797 38.9141 76.6797C43.9105 76.6797 48.8126 75.6518 53.4844 73.6238C57.9732 71.6757 62.0327 68.904 65.5504 65.3863C69.0681 61.8686 71.8398 57.8092 73.7879 53.3203C75.8159 48.6486 76.8438 43.7464 76.8438 38.75C76.8438 33.7536 75.8159 28.8514 73.7879 24.1797ZM38.9141 73.7164C19.9602 73.7164 3.94763 57.7038 3.94763 38.75C3.94763 19.7962 19.9602 3.78357 38.9141 3.78357C57.8679 3.78357 73.8805 19.7962 73.8805 38.75C73.8805 57.7038 57.8679 73.7164 38.9141 73.7164Z" fill="black"/>
<path d="M67.9506 26.5718C66.3399 22.8295 64.0445 19.4536 61.1276 16.5367C58.2106 13.6203 54.8347 11.3243 51.0924 9.71423C47.2037 8.03987 43.1061 7.19141 38.9142 7.19141C33.2157 7.19141 27.2753 9.1372 21.7354 12.8187C21.0536 13.2719 20.8684 14.1915 21.3216 14.8727C21.7741 15.5545 22.6944 15.7397 23.3756 15.2865C28.4276 11.9291 33.8008 10.1547 38.9142 10.1547C54.4145 10.1547 67.5096 23.2497 67.5096 38.7501C67.5096 54.2505 54.4145 67.3455 38.9142 67.3455C23.4138 67.3455 10.3187 54.2505 10.3187 38.7501C10.3187 33.6379 12.0932 28.2647 15.4494 23.2109C15.902 22.5297 15.7168 21.6101 15.035 21.1575C14.3533 20.7043 13.4336 20.8901 12.981 21.5719C9.30068 27.1124 7.35547 33.0528 7.35547 38.7501C7.35547 42.9421 8.20393 47.0397 9.87771 50.9284C11.4884 54.6706 13.7838 58.0466 16.7007 60.9635C19.6177 63.8799 22.9936 66.1758 26.7359 67.786C30.6246 69.4603 34.7222 70.3088 38.9142 70.3088C43.1061 70.3088 47.2037 69.4603 51.0924 67.7865C54.8347 66.1758 58.2106 63.8805 61.1276 60.9635C64.044 58.0466 66.3399 54.6706 67.95 50.9284C69.6244 47.0397 70.4728 42.9421 70.4728 38.7501C70.4728 34.5581 69.6244 30.4605 67.9506 26.5718Z" fill="black"/>
<path d="M17.8762 16.377C17.0584 16.377 16.3945 17.0408 16.3945 17.8586C16.3945 18.6764 17.0584 19.3402 17.8762 19.3402C18.6939 19.3402 19.3578 18.6764 19.3578 17.8586C19.3578 17.0408 18.6939 16.377 17.8762 16.377Z" fill="black"/>
<path d="M22.6172 49.1205C22.6172 50.704 23.2341 52.192 24.3535 53.3107C25.4734 54.4306 26.9614 55.047 28.5437 55.047C30.126 55.047 31.614 54.4306 32.7339 53.3107L38.9151 47.1295L45.0963 53.3107C46.2162 54.4306 47.7042 55.047 49.2865 55.047C50.8688 55.047 52.3568 54.4306 53.4762 53.3113C54.5961 52.192 55.213 50.704 55.213 49.1205C55.213 47.537 54.5961 46.049 53.4767 44.9303L47.2956 38.7491L53.4762 32.5685C54.5961 31.4492 55.213 29.9612 55.213 28.3777C55.213 26.7942 54.5961 25.3062 53.4767 24.1875C52.3568 23.0676 50.8688 22.4512 49.2865 22.4512C47.7042 22.4512 46.2162 23.0676 45.0963 24.1875L38.9151 30.3686L32.7339 24.1875C31.614 23.0676 30.126 22.4512 28.5437 22.4512C26.9614 22.4512 25.4734 23.0676 24.354 24.1869C23.2341 25.3062 22.6172 26.7942 22.6172 28.3777C22.6172 29.9612 23.2341 31.4492 24.3535 32.5679L30.5346 38.7491L24.354 44.9297C23.2341 46.049 22.6172 47.537 22.6172 49.1205ZM26.4486 47.0254L33.6779 39.7966C34.2561 39.2179 34.2561 38.2803 33.6779 37.7015L26.4486 30.4722C25.8889 29.9126 25.5804 29.1689 25.5804 28.3777C25.5804 27.5865 25.8889 26.8428 26.4486 26.2826C27.0088 25.7229 27.7525 25.4144 28.5437 25.4144C29.3349 25.4144 30.0786 25.7229 30.6388 26.2826L37.8675 33.5119C38.4463 34.0901 39.3839 34.0901 39.9627 33.5119L47.192 26.2826C47.7516 25.7229 48.4953 25.4144 49.2865 25.4144C50.0777 25.4144 50.8214 25.7229 51.3816 26.2831C51.9413 26.8428 52.2498 27.5865 52.2498 28.3777C52.2498 29.1689 51.9413 29.9126 51.3816 30.4728L44.1523 37.7015C43.5741 38.2803 43.5741 39.2185 44.1523 39.7966L51.3816 47.0259C51.9413 47.5856 52.2498 48.3293 52.2498 49.1205C52.2498 49.9116 51.9413 50.6554 51.3816 51.2156C50.8214 51.7753 50.0777 52.0837 49.2865 52.0837C48.4953 52.0837 47.7516 51.7753 47.1914 51.2156L39.9627 43.9863C39.6733 43.6969 39.2942 43.5528 38.9151 43.5528C38.536 43.5528 38.1569 43.6969 37.8675 43.9863L30.6388 51.2156C30.0786 51.7753 29.3349 52.0837 28.5437 52.0837C27.7525 52.0837 27.0088 51.7753 26.4486 51.215C25.8889 50.6554 25.5804 49.9116 25.5804 49.1205C25.5804 48.3293 25.8889 47.5856 26.4486 47.0254Z" fill="black"/>
</g>
<defs>
<clipPath id="clip0_154_299">
<rect width="75.8594" height="75.8594" fill="white" transform="translate(0.984375 0.820312)"/>
</clipPath>
</defs>
</svg>
