<svg width="24" height="24" viewBox="0 0 24 24" fill="none" xmlns="http://www.w3.org/2000/svg">
<g clip-path="url(#clip0_102_564)">
<path fill-rule="evenodd" clip-rule="evenodd" d="M10.8503 0.34375C7.82851 0.34375 5.37891 2.79335 5.37891 5.8151C5.37891 8.83685 7.82851 11.2864 10.8503 11.2864C13.872 11.2864 16.3216 8.8368 16.3216 5.8151C16.3216 2.79335 13.872 0.34375 10.8503 0.34375Z" fill="white"/>
<path fill-rule="evenodd" clip-rule="evenodd" d="M19.754 12.0919C19.2476 11.5181 18.5042 11.1543 17.6767 11.1543H15.6881C14.1583 11.1543 12.918 12.3946 12.918 13.9245V20.8842C12.918 22.4142 14.1583 23.6544 15.6881 23.6544H17.6767C18.5042 23.6544 19.2476 23.2906 19.754 22.7167C20.0397 22.3931 20.0089 21.8992 19.6852 21.6135C19.3617 21.3279 18.8677 21.3587 18.582 21.6823C18.3598 21.9342 18.037 22.0911 17.6767 22.0911H15.6882C15.0216 22.0911 14.4813 21.5508 14.4813 20.8842V13.9245C14.4813 13.2579 15.0216 12.7176 15.6882 12.7176H17.6767C18.037 12.7176 18.3598 12.8745 18.582 13.1264C18.8677 13.45 19.3617 13.4808 19.6852 13.1952C20.0089 12.9095 20.0397 12.4155 19.754 12.0919Z" fill="#F44336"/>
<path fill-rule="evenodd" clip-rule="evenodd" d="M22.7194 16.852C23.0247 17.1573 23.0247 17.6521 22.7194 17.9573L20.635 20.0417C20.3298 20.3469 19.8349 20.3469 19.5297 20.0417C19.2245 19.7364 19.2245 19.2416 19.5297 18.9363L21.6141 16.852C21.9193 16.5467 22.4142 16.5467 22.7194 16.852Z" fill="#F44336"/>
<path fill-rule="evenodd" clip-rule="evenodd" d="M22.7194 17.9577C23.0247 17.6524 23.0247 17.1576 22.7194 16.8524L20.635 14.768C20.3298 14.4627 19.8349 14.4627 19.5297 14.768C19.2245 15.0733 19.2245 15.5681 19.5297 15.8733L21.6141 17.9577C21.9193 18.2629 22.4142 18.2629 22.7194 17.9577Z" fill="#F44336"/>
<path fill-rule="evenodd" clip-rule="evenodd" d="M15.6523 17.4047C15.6523 16.973 16.0023 16.623 16.434 16.623H21.6448C22.0764 16.623 22.4264 16.973 22.4264 17.4047C22.4264 17.8363 22.0764 18.1863 21.6448 18.1863H16.434C16.0023 18.1863 15.6523 17.8363 15.6523 17.4047Z" fill="#F44336"/>
<path d="M11.3727 13.5544C11.3622 13.6773 11.3569 13.8018 11.3569 13.9274V20.8872C11.3569 21.6644 11.5615 22.3939 11.9198 23.0246H2.42533C1.41806 23.0246 0.601562 22.208 0.601562 21.2008V17.3741C0.601562 16.7352 0.95422 16.1484 1.5184 15.8486C4.59345 14.2144 7.9935 13.4497 11.3727 13.5544Z" fill="white"/>
<path fill-rule="evenodd" clip-rule="evenodd" d="M10.8542 1.90699C8.69581 1.90699 6.94606 3.6567 6.94606 5.8151C6.94606 7.9735 8.69577 9.72321 10.8542 9.72321C13.0126 9.72321 14.7623 7.9735 14.7623 5.8151C14.7623 3.6567 13.0126 1.90699 10.8542 1.90699ZM5.38281 5.8151C5.38281 2.79335 7.83242 0.34375 10.8542 0.34375C13.8759 0.34375 16.3255 2.79335 16.3255 5.8151C16.3255 8.83685 13.8759 11.2864 10.8542 11.2864C7.83242 11.2864 5.38281 8.83685 5.38281 5.8151Z" fill="#33322E"/>
<path fill-rule="evenodd" clip-rule="evenodd" d="M10.5588 14.2972C10.5815 14.7282 10.2504 15.0961 9.81942 15.1188C7.21564 15.2559 4.63482 15.9545 2.26372 17.2146C2.21009 17.243 2.17652 17.2989 2.17652 17.3596V21.1863C2.17652 21.3302 2.29318 21.4468 2.43705 21.4468H9.77823C10.2099 21.4468 10.5599 21.7968 10.5599 22.2284C10.5599 22.6602 10.2099 23.01 9.77823 23.01H2.43705C1.42983 23.01 0.613281 22.1935 0.613281 21.1863V17.3596C0.613281 16.7207 0.965939 16.134 1.53017 15.8341C4.10557 14.4655 6.90905 13.7067 9.7372 13.5577C10.1682 13.535 10.5361 13.8661 10.5588 14.2972Z" fill="#33322E"/>
<path fill-rule="evenodd" clip-rule="evenodd" d="M19.7579 12.0919C19.2515 11.5181 18.5081 11.1543 17.6806 11.1543H15.692C14.1622 11.1543 12.9219 12.3946 12.9219 13.9245V20.8842C12.9219 22.4142 14.1622 23.6544 15.692 23.6544H17.6806C18.5081 23.6544 19.2515 23.2906 19.7579 22.7167C20.0436 22.3931 20.0128 21.8992 19.6892 21.6135C19.3656 21.3279 18.8716 21.3587 18.5859 21.6823C18.3637 21.9342 18.0409 22.0911 17.6806 22.0911H15.6921C15.0255 22.0911 14.4852 21.5508 14.4852 20.8842V13.9245C14.4852 13.2579 15.0255 12.7176 15.6921 12.7176H17.6806C18.0409 12.7176 18.3637 12.8745 18.5859 13.1264C18.8716 13.45 19.3656 13.4808 19.6892 13.1952C20.0128 12.9095 20.0436 12.4155 19.7579 12.0919Z" fill="#33322E"/>
<path fill-rule="evenodd" clip-rule="evenodd" d="M22.7195 16.852C23.0247 17.1573 23.0247 17.6521 22.7195 17.9573L20.6351 20.0417C20.3299 20.3469 19.8349 20.3469 19.5297 20.0417C19.2245 19.7364 19.2244 19.2416 19.5297 18.9363L21.6141 16.852C21.9193 16.5467 22.4142 16.5467 22.7195 16.852Z" fill="#33322E"/>
<path fill-rule="evenodd" clip-rule="evenodd" d="M22.7195 17.9577C23.0247 17.6524 23.0247 17.1576 22.7195 16.8524L20.6351 14.768C20.3299 14.4627 19.8349 14.4627 19.5297 14.768C19.2245 15.0733 19.2244 15.5681 19.5297 15.8733L21.6141 17.9577C21.9193 18.2629 22.4142 18.2629 22.7195 17.9577Z" fill="#33322E"/>
<path fill-rule="evenodd" clip-rule="evenodd" d="M15.6523 17.4047C15.6523 16.973 16.0023 16.623 16.434 16.623H21.6448C22.0764 16.623 22.4264 16.973 22.4264 17.4047C22.4264 17.8363 22.0764 18.1863 21.6448 18.1863H16.434C16.0023 18.1863 15.6523 17.8363 15.6523 17.4047Z" fill="#33322E"/>
</g>
<defs>
<clipPath id="clip0_102_564">
<rect width="23.3125" height="23.3125" fill="white" transform="translate(0.117188 0.34375)"/>
</clipPath>
</defs>
</svg>
