<svg width="32" height="33" viewBox="0 0 32 33" fill="none" xmlns="http://www.w3.org/2000/svg">
<path d="M0.212011 7.41338H3.07763L6.63918 18.4255H6.68011L10.2417 7.41338H13.1073L8.01058 21.7415H5.30871L0.212011 7.41338ZM13.8261 9.41931V8.10931L14.7676 7.16775H16.2004L17.142 8.10931V9.41931L16.2004 10.3609H14.7676L13.8261 9.41931ZM14.1331 11.5481H16.835V21.7415H14.1331V11.5481ZM19.5053 11.5481H22.0025V13.247L23.7014 11.5481H26.9969L29.2689 13.8201V21.7415H26.567V14.5569L25.8711 13.8405H24.1517L22.2072 15.8055V21.7415H19.5053V11.5481Z" fill="#6978C8"/>
<path d="M10.6051 28.3118V24.4279L11.519 23.514H14.2116L15.1255 24.4279V28.3118L14.2116 29.2257H11.519L10.6051 28.3118ZM13.8363 28.5403L14.3422 28.0344V24.7053L13.8363 24.1994H11.8943L11.3884 24.7053V28.0344L11.8943 28.5403H13.8363ZM16.1421 28.4342V27.8141H16.9173V28.1813L17.2682 28.5403H19.1367L19.4957 28.1731V26.9981L19.1367 26.6473H16.9499L16.1584 25.8476V24.3055L16.9499 23.514H19.4141L20.2056 24.3055V24.9338H19.4386V24.5584L19.0796 24.1994H17.2926L16.9336 24.5584V25.6028L17.2926 25.9619H19.4794L20.2709 26.7534V28.4179L19.4631 29.2257H16.9336L16.1421 28.4342Z" fill="#7E7E7E"/>
</svg>
