<svg
  width="44"
  height="46"
  viewBox="0 0 44 46"
  fill="none"
  xmlns="http://www.w3.org/2000/svg"
>
  <path
    d="M7.04189 30C6.92304 30 6.81409 29.9703 6.71505 29.9109C6.61601 29.8316 6.55658 29.7326 6.53677 29.6137L0.68339 9.70629C0.663582 9.66667 0.653677 9.61715 0.653677 9.55773C0.653677 9.32003 0.792336 9.20118 1.06965 9.20118H6.15051C6.40802 9.20118 6.56649 9.32993 6.62591 9.58744L9.59717 22.1262C9.61698 22.2054 9.64669 22.245 9.68631 22.245C9.72593 22.245 9.75564 22.2054 9.77545 22.1262L12.6576 9.58744C12.717 9.32993 12.8755 9.20118 13.133 9.20118H18.095C18.2534 9.20118 18.3624 9.2507 18.4218 9.34974C18.501 9.42897 18.5209 9.54782 18.4812 9.70629L12.5684 29.6137C12.5486 29.7326 12.4892 29.8316 12.3902 29.9109C12.2911 29.9703 12.1822 30 12.0633 30H7.04189ZM22.9539 13.5095C22.1418 13.5095 21.4683 13.252 20.9335 12.737C20.4184 12.2021 20.1609 11.5287 20.1609 10.7165C20.1609 9.88457 20.4184 9.21108 20.9335 8.69606C21.4683 8.18104 22.1418 7.92353 22.9539 7.92353C23.7661 7.92353 24.4296 8.18104 24.9447 8.69606C25.4795 9.21108 25.7469 9.88457 25.7469 10.7165C25.7469 11.5089 25.4795 12.1724 24.9447 12.7073C24.4296 13.2421 23.7661 13.5095 22.9539 13.5095ZM20.5769 30C20.4382 30 20.3293 29.9604 20.2501 29.8811C20.1708 29.8019 20.1312 29.693 20.1312 29.5543V14.9951C20.1312 14.8565 20.1708 14.7475 20.2501 14.6683C20.3293 14.5891 20.4382 14.5494 20.5769 14.5494H25.2715C25.4102 14.5494 25.5191 14.5891 25.5983 14.6683C25.6776 14.7475 25.7172 14.8565 25.7172 14.9951V29.5543C25.7172 29.693 25.6776 29.8019 25.5983 29.8811C25.5191 29.9604 25.4102 30 25.2715 30H20.5769ZM36.9458 14.3117C37.9362 14.3117 38.8276 14.5296 39.6199 14.9654C40.4122 15.4012 41.0362 16.045 41.4918 16.8967C41.9672 17.7287 42.2049 18.7191 42.2049 19.868V29.5543C42.2049 29.693 42.1653 29.8019 42.086 29.8811C42.0068 29.9604 41.8979 30 41.7592 30H37.0646C36.926 30 36.817 29.9604 36.7378 29.8811C36.6585 29.8019 36.6189 29.693 36.6189 29.5543V21.0862C36.6189 20.492 36.4605 20.0166 36.1435 19.66C35.8464 19.2837 35.4502 19.0955 34.955 19.0955C34.44 19.0955 34.024 19.2837 33.7071 19.66C33.41 20.0166 33.2614 20.492 33.2614 21.0862V29.5543C33.2614 29.693 33.2218 29.8019 33.1426 29.8811C33.0633 29.9604 32.9544 30 32.8157 30H28.1211C27.9825 30 27.8735 29.9604 27.7943 29.8811C27.7151 29.8019 27.6754 29.693 27.6754 29.5543V14.9951C27.6754 14.8565 27.7151 14.7475 27.7943 14.6683C27.8735 14.5891 27.9825 14.5494 28.1211 14.5494H32.8157C32.9544 14.5494 33.0633 14.5891 33.1426 14.6683C33.2218 14.7475 33.2614 14.8565 33.2614 14.9951V16.0648C33.2614 16.144 33.2812 16.1935 33.3208 16.2134C33.3604 16.2332 33.3902 16.2134 33.41 16.1539C34.1627 14.9258 35.3413 14.3117 36.9458 14.3117Z"
    fill="#33322E"
    shape-rendering="geometricPrecision"
  />
  <path
    d="M28.9832 43.1929C28.0937 43.1929 27.306 43.0161 26.6202 42.6624C25.945 42.2981 25.4199 41.7944 25.0449 41.1514C24.6698 40.4977 24.4822 39.7422 24.4822 38.8849V35.8628C24.4822 35.0269 24.6698 34.2875 25.0449 33.6445C25.4199 33.0015 25.945 32.5032 26.6202 32.1495C27.306 31.7959 28.0937 31.6191 28.9832 31.6191C29.8834 31.6191 30.671 31.7959 31.3462 32.1495C32.032 32.5032 32.5625 33.0015 32.9376 33.6445C33.3127 34.2875 33.5002 35.0269 33.5002 35.8628V38.8849C33.5002 39.7422 33.3127 40.4977 32.9376 41.1514C32.5625 41.7944 32.032 42.2981 31.3462 42.6624C30.671 43.0161 29.8834 43.1929 28.9832 43.1929ZM28.9832 40.6049C29.4333 40.6049 29.7923 40.4602 30.0602 40.1708C30.3388 39.8708 30.4781 39.4743 30.4781 38.9813V35.8307C30.4781 35.3377 30.3388 34.9465 30.0602 34.6572C29.7923 34.3571 29.4333 34.2071 28.9832 34.2071C28.5438 34.2071 28.1848 34.3571 27.9062 34.6572C27.6383 34.9465 27.5043 35.3377 27.5043 35.8307V38.9813C27.5043 39.4743 27.6383 39.8708 27.9062 40.1708C28.1848 40.4602 28.5438 40.6049 28.9832 40.6049ZM38.8707 43.1286C37.9705 43.1286 37.1828 42.9839 36.5077 42.6946C35.8325 42.3945 35.3074 41.9712 34.9324 41.4247C34.568 40.8781 34.3858 40.2459 34.3858 39.5278V39.3028C34.3858 39.2278 34.4072 39.1688 34.4501 39.126C34.493 39.0831 34.5519 39.0617 34.6269 39.0617H37.1185C37.1935 39.0617 37.2525 39.0831 37.2953 39.126C37.3382 39.1688 37.3596 39.2278 37.3596 39.3028V39.3993C37.3596 39.6993 37.515 39.9672 37.8258 40.203C38.1473 40.428 38.5706 40.5406 39.0957 40.5406C39.4922 40.5406 39.7762 40.4602 39.9477 40.2994C40.1191 40.128 40.2049 39.9404 40.2049 39.7368C40.2049 39.5011 40.0977 39.3242 39.8834 39.2064C39.6691 39.0885 39.2779 38.9438 38.7099 38.7723L38.2438 38.6437C37.1828 38.3222 36.2934 37.8936 35.5753 37.3578C34.8573 36.8219 34.4983 36.045 34.4983 35.0269C34.4983 34.3518 34.6805 33.757 35.0449 33.2426C35.4092 32.7175 35.9076 32.3156 36.5398 32.037C37.1828 31.7584 37.9008 31.6191 38.6939 31.6191C39.5297 31.6191 40.2853 31.7744 40.9604 32.0852C41.6463 32.396 42.1821 32.8354 42.5679 33.4034C42.9644 33.9713 43.1626 34.6197 43.1626 35.3484V35.4931C43.1626 35.5681 43.1412 35.627 43.0983 35.6699C43.0555 35.7128 42.9965 35.7342 42.9215 35.7342H40.4299C40.3549 35.7342 40.296 35.7128 40.2531 35.6699C40.2102 35.627 40.1888 35.5681 40.1888 35.4931V35.477C40.1888 35.1555 40.0441 34.8662 39.7548 34.609C39.4654 34.3411 39.0743 34.2071 38.5813 34.2071C38.2384 34.2071 37.9651 34.2768 37.7615 34.4161C37.5686 34.5554 37.4722 34.7483 37.4722 34.9948C37.4722 35.1877 37.5418 35.3538 37.6811 35.4931C37.8312 35.6217 38.0562 35.7503 38.3563 35.8789C38.6563 35.9968 39.1172 36.1521 39.7387 36.345C39.8244 36.3772 40.1995 36.4951 40.8639 36.6987C41.5391 36.8916 42.1017 37.2506 42.5518 37.7757C43.0019 38.2901 43.2269 38.917 43.2269 39.6564C43.2269 40.3745 43.0448 40.996 42.6804 41.5211C42.316 42.0355 41.807 42.432 41.1533 42.7107C40.4996 42.9893 39.7387 43.1286 38.8707 43.1286Z"
    fill="#6CCFCA"
    shape-rendering="geometricPrecision"
  />
</svg>
